<svg width="18" height="18" viewBox="0 0 18 18" fill="none" xmlns="http://www.w3.org/2000/svg">
<path d="M9 11.25L11.25 9M11.25 9L9 6.75M11.25 9H3M6.75 5.43644V5.40015C6.75 4.56007 6.75 4.13972 6.91349 3.81885C7.0573 3.5366 7.2866 3.3073 7.56885 3.16349C7.88972 3 8.31007 3 9.15015 3H12.6001C13.4402 3 13.8597 3 14.1805 3.16349C14.4628 3.3073 14.6929 3.5366 14.8367 3.81885C15 4.1394 15 4.55925 15 5.39768V12.6027C15 13.4411 15 13.8604 14.8367 14.1809C14.6929 14.4632 14.4628 14.6929 14.1805 14.8367C13.86 15 13.4408 15 12.6023 15H9.14768C8.30925 15 7.8894 15 7.56885 14.8367C7.2866 14.6929 7.0573 14.4629 6.91349 14.1807C6.75 13.8598 6.75 13.4401 6.75 12.6V12.5625" stroke="#A6ABC8" stroke-width="1.5" stroke-linecap="round" stroke-linejoin="round"/>
</svg>
