<svg width="11" height="11" viewBox="0 0 11 11" fill="none" xmlns="http://www.w3.org/2000/svg">
<path d="M3.92196 9.36694C4.25748 9.36694 4.52946 9.09341 4.52946 8.75599C4.52946 8.41856 4.25748 8.14503 3.92196 8.14503C3.58644 8.14503 3.31445 8.41856 3.31445 8.75599C3.31445 9.09341 3.58644 9.36694 3.92196 9.36694Z" fill="white"/>
<path d="M8.17464 9.36694C8.51016 9.36694 8.78215 9.09341 8.78215 8.75599C8.78215 8.41856 8.51016 8.14503 8.17464 8.14503C7.83913 8.14503 7.56714 8.41856 7.56714 8.75599C7.56714 9.09341 7.83913 9.36694 8.17464 9.36694Z" fill="white"/>
<path d="M9.25287 3.11947C9.21019 3.06698 9.15643 3.0247 9.09549 2.99571C9.03454 2.96671 8.96794 2.95173 8.90052 2.95184H3.12257L3.00619 2.28781C2.99378 2.21708 2.95699 2.15301 2.90227 2.10685C2.84756 2.06069 2.77841 2.0354 2.707 2.03541H1.49199C1.41142 2.03541 1.33416 2.0676 1.2772 2.12488C1.22023 2.18217 1.18823 2.25987 1.18823 2.34089C1.18823 2.42191 1.22023 2.49961 1.2772 2.55689C1.33416 2.61418 1.41142 2.64637 1.49199 2.64637H2.45222L3.31906 7.58708C3.33147 7.65781 3.36826 7.72189 3.42298 7.76805C3.4777 7.81421 3.54684 7.8395 3.61825 7.83948H8.4783C8.55886 7.83948 8.63612 7.8073 8.69309 7.75001C8.75005 7.69272 8.78205 7.61502 8.78205 7.53401C8.78205 7.45299 8.75005 7.37529 8.69309 7.318C8.63612 7.26071 8.55886 7.22853 8.4783 7.22853H3.87303L3.76595 6.61757H8.35376C8.4591 6.61744 8.56116 6.58071 8.64267 6.51359C8.72417 6.44648 8.78012 6.35311 8.80104 6.24928L9.34779 3.49999C9.36097 3.43345 9.35929 3.3648 9.34287 3.299C9.32645 3.23319 9.29571 3.17188 9.25287 3.11947Z" fill="white"/>
</svg>
