<svg width="27" height="27" viewBox="0 0 27 27" fill="none" xmlns="http://www.w3.org/2000/svg">
<path d="M17.1248 9.87499L9.87484 17.125M9.87484 9.87499L17.1248 17.125M2.12459 19.2106C1.67134 18.7575 1.41664 18.1429 1.4165 17.502V9.49799C1.41664 8.8571 1.67134 8.24251 2.12459 7.78941L7.78925 2.12474C8.24236 1.6715 8.85695 1.41679 9.49784 1.41666H17.5018C18.1427 1.41679 18.7573 1.6715 19.2104 2.12474L24.8751 7.78941C25.3283 8.24251 25.583 8.8571 25.5832 9.49799V17.502C25.583 18.1429 25.3283 18.7575 24.8751 19.2106L19.2104 24.8752C18.7573 25.3285 18.1427 25.5832 17.5018 25.5833H9.49784C8.85695 25.5832 8.24236 25.3285 7.78925 24.8752L2.12459 19.2106Z" stroke="black" stroke-width="2" stroke-linecap="round" stroke-linejoin="round"/>
</svg>
