<svg width="16" height="14" viewBox="0 0 16 14" fill="none" xmlns="http://www.w3.org/2000/svg">
<path d="M2.66671 4.33333V11.6667C2.66671 12.0203 2.80718 12.3594 3.05723 12.6095C3.30728 12.8595 3.64642 13 4.00004 13H12C12.3537 13 12.6928 12.8595 12.9428 12.6095C13.1929 12.3594 13.3334 12.0203 13.3334 11.6667V4.33333M6.33337 10.3333L9.66671 7M6.33337 7L9.66671 10.3333M2.00004 1H14C14.3682 1 14.6667 1.29848 14.6667 1.66667V3.66667C14.6667 4.03486 14.3682 4.33333 14 4.33333H2.00004C1.63185 4.33333 1.33337 4.03486 1.33337 3.66667V1.66667C1.33337 1.29848 1.63185 1 2.00004 1Z" stroke="#0171FF" stroke-width="1.4" stroke-linecap="round" stroke-linejoin="round"/>
</svg>
