<svg width="11" height="11" viewBox="0 0 11 11" fill="none" xmlns="http://www.w3.org/2000/svg">
<path d="M0.5 9.66672H10.5M0.5 9.66672V7.33339L5.5 2.66672M0.5 9.66672L3 9.66671L7.99999 5.00005M5.5 2.66672L7.29289 0.993343L7.29397 0.992351C7.54077 0.762003 7.66439 0.646624 7.80689 0.60341C7.93242 0.565343 8.06765 0.565343 8.19318 0.60341C8.33558 0.646594 8.45905 0.761841 8.70551 0.991863L9.79288 2.00674C10.0404 2.23775 10.1642 2.35331 10.2106 2.4865C10.2514 2.60366 10.2513 2.72986 10.2106 2.84702C10.1642 2.98012 10.0406 3.0955 9.79344 3.32618L9.79289 3.32668L7.99999 5.00005M5.5 2.66672L7.99999 5.00005" stroke="#6467FF" stroke-width="0.7" stroke-linecap="round" stroke-linejoin="round"/>
</svg>
