<svg width="14" height="14" viewBox="0 0 14 14" fill="none" xmlns="http://www.w3.org/2000/svg">
<path d="M5.33332 6.00001H6.99998C7.1768 6.00001 7.34636 5.92977 7.47139 5.80474C7.59641 5.67972 7.66665 5.51015 7.66665 5.33334C7.66665 5.15653 7.59641 4.98696 7.47139 4.86193C7.34636 4.73691 7.1768 4.66667 6.99998 4.66667H6.33332V4.33334C6.33332 4.15653 6.26308 3.98696 6.13806 3.86193C6.01303 3.73691 5.84346 3.66667 5.66665 3.66667C5.48984 3.66667 5.32027 3.73691 5.19525 3.86193C5.07022 3.98696 4.99998 4.15653 4.99998 4.33334V4.70001C4.59493 4.78225 4.23489 5.01207 3.98976 5.34485C3.74462 5.67762 3.63188 6.08961 3.67341 6.50084C3.71495 6.91206 3.90781 7.29318 4.21454 7.57021C4.52127 7.84725 4.92 8.00042 5.33332 8.00001H5.99998C6.08839 8.00001 6.17317 8.03512 6.23569 8.09764C6.2982 8.16015 6.33332 8.24493 6.33332 8.33334C6.33332 8.42174 6.2982 8.50653 6.23569 8.56904C6.17317 8.63155 6.08839 8.66667 5.99998 8.66667H4.33332C4.15651 8.66667 3.98694 8.73691 3.86191 8.86193C3.73689 8.98696 3.66665 9.15653 3.66665 9.33334C3.66665 9.51015 3.73689 9.67972 3.86191 9.80474C3.98694 9.92977 4.15651 10 4.33332 10H4.99998V10.3333C4.99998 10.5101 5.07022 10.6797 5.19525 10.8047C5.32027 10.9298 5.48984 11 5.66665 11C5.84346 11 6.01303 10.9298 6.13806 10.8047C6.26308 10.6797 6.33332 10.5101 6.33332 10.3333V9.96667C6.73837 9.88442 7.09841 9.65461 7.34355 9.32183C7.58868 8.98905 7.70143 8.57706 7.65989 8.16584C7.61835 7.75461 7.4255 7.37349 7.11876 7.09646C6.81203 6.81943 6.4133 6.66626 5.99998 6.66667H5.33332C5.24491 6.66667 5.16013 6.63155 5.09762 6.56904C5.0351 6.50653 4.99998 6.42174 4.99998 6.33334C4.99998 6.24493 5.0351 6.16015 5.09762 6.09764C5.16013 6.03512 5.24491 6.00001 5.33332 6.00001ZM13 7.00001H11V1C11.0005 0.882532 10.9699 0.767021 10.9113 0.665169C10.8528 0.563317 10.7684 0.478741 10.6667 0.420005C10.5653 0.361493 10.4503 0.330688 10.3333 0.330688C10.2163 0.330688 10.1013 0.361493 9.99998 0.420005L7.99998 1.56667L5.99998 0.420005C5.89864 0.361493 5.78368 0.330688 5.66665 0.330688C5.54963 0.330688 5.43466 0.361493 5.33332 0.420005L3.33332 1.56667L1.33332 0.420005C1.23197 0.361493 1.11701 0.330688 0.999985 0.330688C0.88296 0.330688 0.767998 0.361493 0.666652 0.420005C0.564915 0.478741 0.480506 0.563317 0.42197 0.665169C0.363435 0.767021 0.332852 0.882532 0.333318 1V11.6667C0.333318 12.1971 0.544032 12.7058 0.919105 13.0809C1.29418 13.456 1.80289 13.6667 2.33332 13.6667H11.6667C12.1971 13.6667 12.7058 13.456 13.0809 13.0809C13.4559 12.7058 13.6667 12.1971 13.6667 11.6667V7.66667C13.6667 7.48986 13.5964 7.32029 13.4714 7.19527C13.3464 7.07024 13.1768 7.00001 13 7.00001ZM2.33332 12.3333C2.15651 12.3333 1.98694 12.2631 1.86191 12.1381C1.73689 12.0131 1.66665 11.8435 1.66665 11.6667V2.15334L2.99998 2.91334C3.10288 2.96708 3.21724 2.99515 3.33332 2.99515C3.4494 2.99515 3.56376 2.96708 3.66665 2.91334L5.66665 1.76667L7.66665 2.91334C7.76954 2.96708 7.8839 2.99515 7.99998 2.99515C8.11607 2.99515 8.23043 2.96708 8.33332 2.91334L9.66665 2.15334V11.6667C9.66845 11.8941 9.70904 12.1196 9.78665 12.3333H2.33332ZM12.3333 11.6667C12.3333 11.8435 12.2631 12.0131 12.1381 12.1381C12.013 12.2631 11.8435 12.3333 11.6667 12.3333C11.4898 12.3333 11.3203 12.2631 11.1952 12.1381C11.0702 12.0131 11 11.8435 11 11.6667V8.33334H12.3333V11.6667Z" fill="black"/>
</svg>
