<svg width="16" height="15" viewBox="0 0 16 15" fill="none" xmlns="http://www.w3.org/2000/svg">
<path d="M8 14.0001H14.75M10.25 2.75006L12.5 5.00006M11.282 1.71655C11.5805 1.41798 11.9855 1.25024 12.4077 1.25024C12.83 1.25024 13.2349 1.41798 13.5335 1.71655C13.8321 2.01511 13.9998 2.42006 13.9998 2.8423C13.9998 3.26453 13.8321 3.66948 13.5335 3.96805L4.52598 12.9763C4.34755 13.1547 4.127 13.2852 3.88473 13.3558L1.73073 13.9843C1.6662 14.0031 1.59779 14.0042 1.53266 13.9876C1.46754 13.9709 1.4081 13.937 1.36057 13.8895C1.31303 13.8419 1.27915 13.7825 1.26246 13.7174C1.24578 13.6522 1.24691 13.5838 1.26573 13.5193L1.89423 11.3653C1.9649 11.1233 2.09542 10.903 2.27373 10.7248L11.282 1.71655Z" stroke="#0171FF" stroke-width="2" stroke-linecap="round" stroke-linejoin="round"/>
</svg>
