<svg width="18" height="18" viewBox="0 0 18 18" fill="none" xmlns="http://www.w3.org/2000/svg">
<path d="M2.25 8.25V11.8501C2.25 12.6902 2.25 13.11 2.41349 13.4309C2.5573 13.7132 2.7866 13.9429 3.06885 14.0867C3.3894 14.25 3.80925 14.25 4.64768 14.25H13.3523C14.1908 14.25 14.61 14.25 14.9305 14.0867C15.2128 13.9429 15.4429 13.7132 15.5867 13.4309C15.75 13.1104 15.75 12.6911 15.75 11.8527V8.25M2.25 8.25V6.75M2.25 8.25H15.75M2.25 6.75V6.15015C2.25 5.31007 2.25 4.88972 2.41349 4.56885C2.5573 4.2866 2.7866 4.0573 3.06885 3.91349C3.38972 3.75 3.81007 3.75 4.65015 3.75H13.3501C14.1902 3.75 14.6097 3.75 14.9305 3.91349C15.2128 4.0573 15.4429 4.2866 15.5867 4.56885C15.75 4.8894 15.75 5.30925 15.75 6.14768V6.75M2.25 6.75H15.75M5.25 11.25H8.25M15.75 8.25V6.75" stroke="#A6ABC8" stroke-width="1.5" stroke-linecap="round" stroke-linejoin="round"/>
</svg>
