<svg width="14" height="15" viewBox="0 0 14 15" fill="none" xmlns="http://www.w3.org/2000/svg">
<path d="M2.49998 6.77792V3.31125C2.49998 2.50229 2.49998 2.0975 2.66347 1.78852C2.80728 1.51673 3.03658 1.29592 3.31882 1.15744C3.63968 1 4.06003 1 4.9001 1H8.25595C8.34787 1 8.42829 1 8.49991 1.00063M12.9992 5.33333C12.9998 5.40238 12.9999 5.47992 12.9999 5.56855V11.6915C12.9999 12.4988 12.9999 12.9026 12.8365 13.2112C12.6927 13.483 12.4628 13.7042 12.1806 13.8427C11.86 14 11.4406 14 10.6022 14L7.74992 14M12.9992 5.33333C12.9971 5.12715 12.9892 4.9966 12.9581 4.87207C12.9214 4.72468 12.8605 4.58377 12.7783 4.45453C12.6855 4.30876 12.5565 4.1842 12.2971 3.93438L9.95302 1.67708C9.69376 1.42742 9.56382 1.3023 9.4125 1.213C9.27829 1.1338 9.13209 1.07529 8.97903 1.03991C8.84966 1.01 8.71413 1.00251 8.49991 1.00063M12.9992 5.33333H10.8976C10.0591 5.33333 9.6393 5.33333 9.31875 5.17605C9.03651 5.03757 8.80721 4.81616 8.6634 4.54437C8.49991 4.23539 8.49991 3.83119 8.49991 3.02222V1.00063M4.74995 8.94444L6.24994 10.3889M1 14V12.1944L6.62493 6.77778L8.49991 8.58333L2.87498 14H1Z" stroke="#A6ABC8" stroke-width="1.5" stroke-linecap="round" stroke-linejoin="round"/>
</svg>
