<svg width="33" height="34" viewBox="0 0 33 34" fill="none" xmlns="http://www.w3.org/2000/svg">
<rect x="0.318848" y="0.820068" width="31.7312" height="32.4189" rx="12" fill="white"/>
<path d="M16.1844 8.69318C11.6797 8.69318 8.0249 12.4271 8.0249 17.0295C8.0249 21.6318 11.6797 25.3657 16.1844 25.3657C20.6891 25.3657 24.3438 21.6318 24.3438 17.0295C24.3438 12.4271 20.6891 8.69318 16.1844 8.69318ZM15.9294 21.8923C15.7613 21.8923 15.5969 21.8414 15.4572 21.7459C15.3174 21.6505 15.2085 21.5149 15.1441 21.3562C15.0798 21.1976 15.063 21.023 15.0958 20.8545C15.1286 20.6861 15.2095 20.5313 15.3284 20.4099C15.4472 20.2885 15.5987 20.2058 15.7636 20.1722C15.9284 20.1387 16.0993 20.1559 16.2546 20.2217C16.4099 20.2874 16.5427 20.3987 16.6361 20.5415C16.7295 20.6843 16.7793 20.8522 16.7793 21.0239C16.7793 21.2542 16.6898 21.4751 16.5304 21.6379C16.371 21.8008 16.1548 21.8923 15.9294 21.8923ZM17.3505 17.4636C16.6616 17.936 16.5668 18.3689 16.5668 18.7662C16.5668 18.9274 16.5041 19.082 16.3926 19.196C16.281 19.31 16.1297 19.374 15.9719 19.374C15.8141 19.374 15.6627 19.31 15.5512 19.196C15.4396 19.082 15.3769 18.9274 15.3769 18.7662C15.3769 17.8149 15.8053 17.0585 16.6867 16.4537C17.506 15.8919 17.9692 15.5359 17.9692 14.753C17.9692 14.2207 17.6718 13.8165 17.056 13.5174C16.9111 13.447 16.5885 13.3784 16.1916 13.3832C15.6935 13.3897 15.3068 13.5113 15.0089 13.7562C14.4471 14.2181 14.3995 14.7209 14.3995 14.7283C14.3957 14.8081 14.3766 14.8864 14.3432 14.9587C14.3098 15.031 14.2628 15.0958 14.2049 15.1495C14.147 15.2033 14.0793 15.2448 14.0057 15.2718C13.9321 15.2988 13.854 15.3107 13.7758 15.3068C13.6977 15.303 13.6211 15.2835 13.5503 15.2494C13.4796 15.2153 13.4161 15.1672 13.3635 15.1081C13.3109 15.0489 13.2703 14.9797 13.2439 14.9045C13.2174 14.8293 13.2058 14.7495 13.2096 14.6697C13.2142 14.5642 13.2861 13.6138 14.2622 12.8114C14.7684 12.3954 15.4122 12.1792 16.1746 12.1697C16.7143 12.1632 17.2213 12.2565 17.5651 12.4224C18.5939 12.9195 19.1592 13.7483 19.1592 14.753C19.1592 16.2219 18.1983 16.8814 17.3505 17.4636Z" fill="#4FD1C5"/>
</svg>
