<svg width="18" height="18" viewBox="0 0 18 18" fill="none" xmlns="http://www.w3.org/2000/svg">
<rect x="0.5" y="0.5" width="17" height="17" stroke="white"/>
<path fill-rule="evenodd" clip-rule="evenodd" d="M5.7525 1.49939H12.255C14.7975 1.49939 16.5 3.28439 16.5 5.93939V12.0676C16.5 14.7151 14.7975 16.4994 12.255 16.4994H5.7525C3.21 16.4994 1.5 14.7151 1.5 12.0676V5.93939C1.5 3.28439 3.21 1.49939 5.7525 1.49939ZM8.99256 6.79515C8.64006 6.79515 8.34756 6.5019 8.34756 6.14265C8.34756 5.77515 8.64006 5.48265 9.00756 5.48265C9.36756 5.48265 9.66006 5.77515 9.66006 6.14265C9.66006 6.5019 9.36756 6.79515 8.99256 6.79515ZM9.65244 11.8351C9.65244 12.1951 9.35994 12.4876 8.99244 12.4876C8.63244 12.4876 8.33994 12.1951 8.33994 11.8351V8.52013C8.33994 8.15938 8.63244 7.86013 8.99244 7.86013C9.35994 7.86013 9.65244 8.15938 9.65244 8.52013V11.8351Z" fill="#A6ABC8"/>
</svg>
