<svg width="10" height="11" viewBox="0 0 10 11" fill="none" xmlns="http://www.w3.org/2000/svg">
<g clip-path="url(#clip0_2110_1511)">
<path d="M9.34204 1.54443C9.33858 1.52755 9.3304 1.51201 9.31846 1.49963C9.30652 1.48725 9.29133 1.47856 9.27465 1.47456C8.16272 1.20115 5.59354 2.17544 4.2016 3.57471C3.95333 3.82237 3.727 4.09132 3.52518 4.3785C3.09594 4.34032 2.6667 4.3722 2.30087 4.53258C1.26868 4.98946 0.968151 6.18158 0.884429 6.6944C0.87968 6.72247 0.881471 6.75126 0.889662 6.77852C0.897852 6.80577 0.912219 6.83075 0.931631 6.85147C0.951043 6.8722 0.974972 6.88811 1.00154 6.89796C1.0281 6.90781 1.05657 6.91133 1.08472 6.90824L2.74226 6.72438C2.74344 6.85005 2.75098 6.97559 2.76485 7.10049C2.77319 7.18723 2.81148 7.2683 2.87306 7.3296L3.51493 7.97359C3.57594 8.03544 3.65652 8.07393 3.74274 8.08241C3.86625 8.09631 3.99038 8.10389 4.11465 8.10513L3.93278 9.76999C3.92974 9.79828 3.93327 9.8269 3.94308 9.85359C3.95288 9.88029 3.96871 9.90434 3.98931 9.92385C4.00991 9.94336 4.03472 9.95781 4.0618 9.96606C4.08888 9.97432 4.1175 9.97615 4.1454 9.97141C4.65438 9.88931 5.84186 9.58708 6.29351 8.54903C6.45298 8.18112 6.48563 7.75154 6.4488 7.32197C6.73505 7.11898 7.00318 6.8913 7.25014 6.64152C8.64645 5.24434 9.60973 2.71823 9.34204 1.54443ZM5.85705 4.97475C5.72955 4.84661 5.6427 4.68332 5.60749 4.50553C5.57228 4.32775 5.59029 4.14345 5.65925 3.97596C5.7282 3.80847 5.845 3.66531 5.99487 3.56458C6.14473 3.46386 6.32094 3.41009 6.5012 3.41009C6.68145 3.41009 6.85766 3.46386 7.00753 3.56458C7.1574 3.66531 7.27419 3.80847 7.34315 3.97596C7.4121 4.14345 7.43011 4.32775 7.3949 4.50553C7.35969 4.68332 7.27284 4.84661 7.14534 4.97475C7.06079 5.0599 6.96039 5.12745 6.84986 5.17354C6.73933 5.21963 6.62085 5.24335 6.5012 5.24335C6.38154 5.24335 6.26306 5.21963 6.15254 5.17354C6.04201 5.12745 5.9416 5.0599 5.85705 4.97475Z" fill="white"/>
<path d="M3.47129 8.44004C3.36725 8.54486 3.20038 8.58572 2.99952 8.62066C2.54826 8.69798 2.14977 8.30582 2.23084 7.84704C2.26178 7.6731 2.35329 7.42929 2.41024 7.37202C2.42269 7.35974 2.43097 7.34383 2.43392 7.32655C2.43687 7.30926 2.43432 7.29149 2.42665 7.27574C2.41898 7.25999 2.40657 7.24708 2.39119 7.23883C2.3758 7.23058 2.35822 7.22741 2.34095 7.22978C2.0886 7.26083 1.85383 7.37589 1.67402 7.55664C1.22769 8.00588 1.18555 9.67284 1.18555 9.67284C1.18555 9.67284 2.84404 9.63045 3.29036 9.18121C3.47065 9.00052 3.58521 8.76406 3.61557 8.50992C3.62259 8.43012 3.52596 8.38258 3.47129 8.44004Z" fill="white"/>
</g>
<defs>
<clipPath id="clip0_2110_1511">
<rect width="9.72009" height="9.77528" fill="white" transform="translate(0.27417 0.813488)"/>
</clipPath>
</defs>
</svg>
