<svg width="12" height="12" viewBox="0 0 12 12" fill="none" xmlns="http://www.w3.org/2000/svg">
<g clip-path="url(#clip0_395_809)">
<path d="M7.16072 5.98885C7.17765 5.98887 7.19421 5.98388 7.20832 5.97452C7.22242 5.96516 7.23345 5.95184 7.24001 5.93623C7.24658 5.92062 7.24838 5.90343 7.24521 5.8868C7.24203 5.87017 7.23402 5.85485 7.22217 5.84276L5.53779 4.13002C5.52582 4.11787 5.51051 4.10955 5.49379 4.10613C5.47708 4.10271 5.45973 4.10434 5.44395 4.11082C5.42816 4.11729 5.41467 4.12831 5.40517 4.14249C5.39567 4.15666 5.39061 4.17334 5.39063 4.19039V5.73104C5.39063 5.79941 5.41779 5.86499 5.46614 5.91334C5.51449 5.96169 5.58006 5.98885 5.64844 5.98885H7.16072Z" fill="#2D3748"/>
<path d="M4.98242 6.39719C4.89418 6.31013 4.82406 6.20644 4.77612 6.09213C4.72818 5.97781 4.70337 5.85513 4.70312 5.73117V3.75461H3.15625C2.79191 3.75569 2.4428 3.9009 2.18517 4.15853C1.92754 4.41616 1.78233 4.76527 1.78125 5.12961V9.94211C1.78125 10.3068 1.92612 10.6565 2.18398 10.9144C2.44184 11.1722 2.79158 11.3171 3.15625 11.3171H6.25C6.61467 11.3171 6.96441 11.1722 7.22227 10.9144C7.48013 10.6565 7.625 10.3068 7.625 9.94211V6.67648H5.64844C5.52447 6.67631 5.40176 6.65153 5.28744 6.60358C5.17311 6.55564 5.06944 6.48549 4.98242 6.39719Z" fill="#2D3748"/>
<path d="M8.74219 3.23865H10.2545C10.2714 3.23867 10.288 3.23368 10.3021 3.22432C10.3162 3.21496 10.3272 3.20164 10.3338 3.18603C10.3403 3.17043 10.3421 3.15323 10.339 3.1366C10.3358 3.11997 10.3278 3.10465 10.3159 3.09256L8.63154 1.37982C8.61957 1.36767 8.60426 1.35935 8.58754 1.35593C8.57083 1.35251 8.55348 1.35414 8.5377 1.36062C8.52191 1.36709 8.50842 1.37812 8.49892 1.39229C8.48942 1.40646 8.48436 1.42314 8.48438 1.4402V2.98084C8.48438 3.04922 8.51154 3.11479 8.55989 3.16314C8.60824 3.21149 8.67381 3.23865 8.74219 3.23865Z" fill="#2D3748"/>
<path d="M8.74219 3.92628C8.49206 3.92437 8.25273 3.82416 8.07586 3.6473C7.89899 3.47043 7.79878 3.23109 7.79687 2.98097V1.00441H5.47656C5.1348 1.00481 4.80716 1.14075 4.5655 1.38241C4.32384 1.62407 4.1879 1.95171 4.1875 2.29347V3.06691H5.09242C5.20793 3.06737 5.3222 3.09065 5.42868 3.13541C5.53516 3.18017 5.63175 3.24553 5.71289 3.32773L8.05812 5.71249C8.22174 5.8785 8.31309 6.10246 8.31228 6.33554V9.25441H9.45203C10.1505 9.25441 10.7185 8.67605 10.7185 7.96535V3.92628H8.74219Z" fill="black"/>
</g>
<defs>
<clipPath id="clip0_395_809">
<rect width="11" height="11" fill="white" transform="translate(0.75 0.660873)"/>
</clipPath>
</defs>
</svg>
