<svg width="12" height="12" viewBox="0 0 12 12" fill="none" xmlns="http://www.w3.org/2000/svg">
<path d="M10.587 3.25057C10.5622 3.20243 10.5265 3.16082 10.4826 3.12912C10.4387 3.09742 10.388 3.07653 10.3345 3.06816C10.281 3.05978 10.2263 3.06415 10.1748 3.08092C10.1233 3.09768 10.0766 3.12637 10.0383 3.16464L8.71828 4.4855C8.65348 4.54935 8.56616 4.58515 8.47518 4.58515C8.38421 4.58515 8.29689 4.54935 8.23209 4.4855L7.66146 3.91401C7.62953 3.88209 7.60421 3.84419 7.58693 3.80248C7.56965 3.76077 7.56075 3.71606 7.56075 3.67092C7.56075 3.62577 7.56965 3.58106 7.58693 3.53935C7.60421 3.49764 7.62953 3.45974 7.66146 3.42782L8.97588 2.11319C9.01528 2.07379 9.04452 2.02541 9.06106 1.9722C9.07761 1.91899 9.08098 1.86256 9.07088 1.80777C9.06077 1.75297 9.0375 1.70145 9.00306 1.65765C8.96862 1.61384 8.92405 1.57907 8.87318 1.55632C7.88039 1.11245 6.64117 1.34405 5.85978 2.11964C5.19592 2.77878 4.99805 3.80874 5.3173 4.94548C5.33452 5.00609 5.33462 5.07029 5.31759 5.13097C5.30056 5.19164 5.26708 5.24641 5.22084 5.28923L1.64412 8.55592C1.50478 8.68103 1.39239 8.83321 1.3138 9.00318C1.23522 9.17316 1.19208 9.35736 1.18703 9.54455C1.18197 9.73174 1.2151 9.918 1.28441 10.092C1.35371 10.2659 1.45772 10.424 1.59011 10.5564C1.72249 10.6888 1.88047 10.7929 2.0544 10.8623C2.22834 10.9317 2.41458 10.9649 2.60178 10.9599C2.78897 10.955 2.97319 10.9119 3.1432 10.8334C3.31321 10.7549 3.46544 10.6426 3.59061 10.5033L6.89232 6.9186C6.93452 6.87296 6.98837 6.83969 7.04807 6.82239C7.10778 6.80509 7.17107 6.80441 7.23113 6.82042C7.55476 6.90909 7.88859 6.9551 8.22414 6.95727C8.94172 6.95727 9.57142 6.72503 10.0256 6.27751C10.8667 5.44885 10.995 4.04335 10.587 3.25057ZM2.63649 10.268C2.49499 10.2835 2.35219 10.2546 2.22779 10.1854C2.10339 10.1163 2.00352 10.0102 1.94198 9.88185C1.88043 9.7535 1.86024 9.60922 1.88418 9.46891C1.90813 9.3286 1.97503 9.19919 2.07566 9.09852C2.17629 8.99786 2.30569 8.93091 2.44599 8.90691C2.58629 8.88292 2.73057 8.90306 2.85894 8.96456C2.9873 9.02606 3.09342 9.12589 3.16263 9.25026C3.23184 9.37464 3.26075 9.51743 3.24535 9.65893C3.22841 9.81462 3.15883 9.95986 3.04811 10.0706C2.93739 10.1814 2.79217 10.251 2.63649 10.268Z" fill="#2D3748"/>
</svg>
