<svg width="18" height="18" viewBox="0 0 18 18" fill="none" xmlns="http://www.w3.org/2000/svg">
<rect x="0.5" y="0.5" width="17" height="17" stroke="white"/>
<path fill-rule="evenodd" clip-rule="evenodd" d="M15.3018 10.1851C15.57 10.3276 15.777 10.5526 15.9226 10.7776C16.2062 11.2426 16.1832 11.8126 15.9073 12.3151L15.3707 13.2151C15.0871 13.6951 14.5583 13.9951 14.0141 13.9951C13.7458 13.9951 13.4469 13.9201 13.2016 13.7701C13.0024 13.6426 12.7724 13.5976 12.5271 13.5976C11.7683 13.5976 11.1322 14.2201 11.1092 14.9626C11.1092 15.8251 10.404 16.5001 9.52259 16.5001H8.48019C7.59109 16.5001 6.88594 15.8251 6.88594 14.9626C6.87061 14.2201 6.23444 13.5976 5.47564 13.5976C5.2227 13.5976 4.99276 13.6426 4.80115 13.7701C4.55588 13.9201 4.24929 13.9951 3.98869 13.9951C3.43683 13.9951 2.90797 13.6951 2.62438 13.2151L2.09551 12.3151C1.81192 11.8276 1.79659 11.2426 2.08019 10.7776C2.20282 10.5526 2.43276 10.3276 2.69336 10.1851C2.90797 10.0801 3.04594 9.90762 3.17623 9.70512C3.55947 9.06012 3.32953 8.21262 2.67803 7.83012C1.91923 7.40262 1.67396 6.45012 2.11084 5.70762L2.62438 4.82262C3.06893 4.08012 4.01935 3.81762 4.78582 4.25262C5.45264 4.61262 6.31875 4.37262 6.70965 3.73512C6.83229 3.52512 6.90127 3.30012 6.88594 3.07512C6.87061 2.78262 6.95492 2.50512 7.10055 2.28012C7.38414 1.81512 7.89768 1.51512 8.4572 1.50012H9.53792C10.1051 1.50012 10.6186 1.81512 10.9022 2.28012C11.0402 2.50512 11.1322 2.78262 11.1092 3.07512C11.0938 3.30012 11.1628 3.52512 11.2855 3.73512C11.6764 4.37262 12.5425 4.61262 13.217 4.25262C13.9758 3.81762 14.9339 4.08012 15.3707 4.82262L15.8843 5.70762C16.3288 6.45012 16.0836 7.40262 15.3171 7.83012C14.6656 8.21262 14.4356 9.06012 14.8265 9.70512C14.9492 9.90762 15.0871 10.0801 15.3018 10.1851ZM6.83221 9.00763C6.83221 10.1851 7.80562 11.1226 9.00898 11.1226C10.2123 11.1226 11.1628 10.1851 11.1628 9.00763C11.1628 7.83013 10.2123 6.88513 9.00898 6.88513C7.80562 6.88513 6.83221 7.83013 6.83221 9.00763Z" fill="#A6ABC8"/>
</svg>
