<svg width="11" height="13" viewBox="0 0 11 13" fill="none" xmlns="http://www.w3.org/2000/svg">
<path d="M6.36698 11.4162L9.32462 9.70863C9.64035 9.52635 9.7979 9.43518 9.91271 9.30767C10.0143 9.19485 10.0911 9.06196 10.138 8.91757C10.1909 8.75477 10.1909 8.57284 10.1909 8.20998V4.7898C10.1909 4.42694 10.1909 4.24503 10.138 4.08223C10.0911 3.93784 10.0143 3.80484 9.91271 3.69202C9.7984 3.56506 9.64119 3.4743 9.32818 3.29358L6.36646 1.58363C6.05073 1.40134 5.89318 1.31039 5.72534 1.27471C5.57684 1.24315 5.42331 1.24315 5.27482 1.27471C5.10698 1.31039 4.94891 1.40134 4.63317 1.58363L1.67498 3.29154C1.35962 3.47362 1.20207 3.56458 1.08732 3.69202C0.985735 3.80484 0.909018 3.93784 0.862104 4.08223C0.809082 4.24541 0.809082 4.4278 0.809082 4.79237V8.20756C0.809082 8.57213 0.809082 8.75439 0.862104 8.91757C0.909018 9.06196 0.985735 9.19485 1.08732 9.30767C1.20213 9.43518 1.35981 9.52634 1.67554 9.70863L4.63317 11.4162C4.9489 11.5985 5.10698 11.6895 5.27482 11.7252C5.42331 11.7567 5.57684 11.7567 5.72534 11.7252C5.89317 11.6895 6.05126 11.5985 6.36698 11.4162Z" stroke="black" stroke-width="1.3" stroke-linecap="round" stroke-linejoin="round"/>
<path d="M3.875 6.49989C3.875 7.39735 4.60254 8.12489 5.5 8.12489C6.39746 8.12489 7.125 7.39735 7.125 6.49989C7.125 5.60243 6.39746 4.87489 5.5 4.87489C4.60254 4.87489 3.875 5.60243 3.875 6.49989Z" stroke="black" stroke-width="1.3" stroke-linecap="round" stroke-linejoin="round"/>
</svg>
