<svg width="11" height="11" viewBox="0 0 11 11" fill="none" xmlns="http://www.w3.org/2000/svg">
<g clip-path="url(#clip0_2110_1521)">
<path d="M2.7802 2.79808H8.85525C8.92622 2.79805 8.99711 2.80258 9.0675 2.81164C9.04364 2.6432 8.98611 2.48136 8.89838 2.33589C8.81065 2.19042 8.69453 2.06432 8.55703 1.9652C8.41952 1.86608 8.26349 1.79598 8.09832 1.75915C7.93316 1.72231 7.76229 1.71949 7.59601 1.75087L2.59984 2.60869H2.59415C2.28054 2.669 2.00165 2.84744 1.81445 3.10757C2.09649 2.90582 2.4341 2.79763 2.7802 2.79808Z" fill="white"/>
<path d="M8.8555 3.25734H2.78044C2.45831 3.25769 2.14947 3.38654 1.92169 3.61562C1.6939 3.84469 1.56578 4.15528 1.56543 4.47925V8.14497C1.56578 8.46894 1.6939 8.77953 1.92169 9.00861C2.14947 9.23768 2.45831 9.36653 2.78044 9.36688H8.8555C9.17763 9.36653 9.48647 9.23768 9.71425 9.00861C9.94203 8.77953 10.0702 8.46894 10.0705 8.14497V4.47925C10.0702 4.15528 9.94203 3.84469 9.71425 3.61562C9.48647 3.38654 9.17763 3.25769 8.8555 3.25734ZM7.95373 6.92306C7.83358 6.92306 7.71612 6.88723 7.61622 6.8201C7.51631 6.75297 7.43845 6.65755 7.39247 6.54591C7.34649 6.43428 7.33446 6.31143 7.3579 6.19292C7.38134 6.0744 7.4392 5.96554 7.52416 5.8801C7.60912 5.79466 7.71737 5.73647 7.83521 5.71289C7.95306 5.68932 8.0752 5.70142 8.18621 5.74766C8.29722 5.7939 8.3921 5.87221 8.45885 5.97268C8.52561 6.07315 8.56124 6.19127 8.56124 6.31211C8.56124 6.47415 8.49723 6.62954 8.3833 6.74412C8.26937 6.8587 8.11485 6.92306 7.95373 6.92306Z" fill="white"/>
<path d="M1.57471 5.7668V3.86712C1.57471 3.45339 1.80252 2.75976 2.59323 2.6095C3.26433 2.48292 3.92879 2.48292 3.92879 2.48292C3.92879 2.48292 4.36544 2.7884 4.00473 2.7884C3.64402 2.7884 3.65352 3.25616 4.00473 3.25616C4.35594 3.25616 4.00473 3.70483 4.00473 3.70483L2.59038 5.31813L1.57471 5.7668Z" fill="white"/>
</g>
<defs>
<clipPath id="clip0_2110_1521">
<rect width="9.72009" height="9.77528" fill="white" transform="translate(0.967285 0.813488)"/>
</clipPath>
</defs>
</svg>
