<svg width="10" height="10" viewBox="0 0 10 10" fill="none" xmlns="http://www.w3.org/2000/svg">
<path d="M9.16312 2.18901C9.14125 2.14623 9.10963 2.10925 9.07086 2.08108C9.03208 2.05291 8.98724 2.03435 8.93998 2.02691C8.89273 2.01946 8.84439 2.02335 8.79891 2.03825C8.75343 2.05315 8.71209 2.07864 8.67825 2.11264L7.51184 3.28644C7.45458 3.34319 7.37742 3.375 7.29703 3.375C7.21664 3.375 7.13948 3.34319 7.08222 3.28644L6.57799 2.77859C6.54978 2.75022 6.5274 2.71654 6.51213 2.67947C6.49686 2.64241 6.489 2.60268 6.489 2.56256C6.489 2.52243 6.49686 2.48271 6.51213 2.44564C6.5274 2.40857 6.54978 2.37489 6.57799 2.34653L7.73947 1.17827C7.77429 1.14325 7.80012 1.10026 7.81474 1.05297C7.82937 1.00569 7.83234 0.955542 7.82341 0.906846C7.81448 0.85815 7.79392 0.812367 7.76348 0.77344C7.73305 0.734514 7.69367 0.703611 7.64872 0.683392V0.683392C6.77144 0.288945 5.67642 0.49476 4.98595 1.18399C4.39933 1.76975 4.22448 2.68503 4.50659 3.69521C4.5218 3.74908 4.52189 3.80613 4.50684 3.86005C4.4918 3.91396 4.46221 3.96264 4.42135 4.00069L1.2608 6.90368C1.13767 7.01485 1.03836 7.15009 0.968917 7.30114C0.899473 7.45219 0.861356 7.61588 0.856889 7.78223C0.852423 7.94858 0.881701 8.1141 0.942939 8.2687C1.00418 8.4233 1.09609 8.56373 1.21307 8.68142C1.33005 8.79912 1.46965 8.89162 1.62334 8.95327C1.77704 9.01492 1.94162 9.04444 2.10703 9.04002C2.27244 9.03561 2.43523 8.99734 2.58545 8.92757C2.73568 8.8578 2.8702 8.75798 2.9808 8.63421L5.89835 5.44865C5.93563 5.40809 5.98322 5.37853 6.03597 5.36315C6.08873 5.34778 6.14466 5.34717 6.19773 5.3614C6.48371 5.4402 6.77869 5.48108 7.0752 5.48302C7.70928 5.48302 8.26572 5.27663 8.66705 4.87893C9.4103 4.14254 9.52364 2.89352 9.16312 2.18901ZM2.1377 8.42515C2.01266 8.43887 1.88648 8.41323 1.77655 8.35176C1.66663 8.29029 1.57838 8.19603 1.524 8.08197C1.46961 7.96792 1.45177 7.8397 1.47293 7.71502C1.49409 7.59033 1.55321 7.47532 1.64213 7.38586C1.73105 7.29641 1.84539 7.23691 1.96936 7.21559C2.09334 7.19426 2.22084 7.21216 2.33427 7.26682C2.4477 7.32147 2.54146 7.41018 2.60262 7.52071C2.66378 7.63124 2.68932 7.75813 2.67572 7.88388C2.66075 8.02223 2.59926 8.1513 2.50142 8.24973C2.40359 8.34816 2.27527 8.41004 2.1377 8.42515V8.42515Z" fill="white"/>
</svg>
